<?xml version="1.0" encoding="utf-8"?>
<!-- Generator: Adobe Illustrator 23.1.1, SVG Export Plug-In . SVG Version: 6.00 Build 0)  -->
<svg version="1.1" id="Capa_1" xmlns="http://www.w3.org/2000/svg" xmlns:xlink="http://www.w3.org/1999/xlink" x="0px" y="0px"
	 viewBox="0 0 438.5 436.3" style="enable-background:new 0 0 438.5 436.3;" xml:space="preserve">
<title>resume-logo</title>
<g>
	<g>
		<path d="M346.8,270.3c-9-9.3-19.8-14.3-31.3-14.3c-11.4,0-22.3,4.9-31.7,14.2l-29.3,29c-2.4-1.3-4.8-2.5-7.1-3.7
			c-3.3-1.7-6.5-3.2-9.2-4.9c-27.4-17.3-52.4-39.9-76.3-69.1c-11.6-14.6-19.4-26.8-25-39.2c7.6-6.9,14.6-14.1,21.5-21
			c2.6-2.6,5.2-5.2,7.8-7.8c19.5-19.3,19.5-44.4,0-63.7l-25.3-25.1c-2.9-2.9-5.8-5.8-8.6-8.7c-5.6-5.7-11.4-11.6-17.4-17.1
			c-9-8.8-19.7-13.5-31.1-13.5s-22.2,4.7-31.5,13.5c-0.1,0.1-0.1,0.1-0.2,0.2L20.5,70.5C8.6,82.3,1.9,96.7,0.4,113.4
			c-2.2,26.9,5.7,51.9,11.9,68.3c15,40.2,37.4,77.5,70.9,117.5c40.6,48.2,89.4,86.2,145.3,113c21.3,10,49.8,21.9,81.6,23.9
			c1.9,0.1,4,0.2,5.8,0.2c21.4,0,39.4-7.6,53.5-22.8c0.1-0.2,0.3-0.3,0.4-0.5c4.8-5.8,10.4-11.1,16.2-16.7c4-3.8,8.1-7.7,12.1-11.9
			c9.2-9.5,14-20.5,14-31.9c0-11.4-4.9-22.4-14.3-31.6L346.8,270.3z M380,367.3C379.9,367.3,379.9,367.4,380,367.3
			c-3.6,3.9-7.3,7.4-11.3,11.2c-6,5.7-12.1,11.7-17.9,18.4c-9.4,9.9-20.4,14.6-34.9,14.6c-1.4,0-2.9,0-4.3-0.1
			c-27.5-1.7-53.1-12.4-72.3-21.5c-52.5-25.2-98.5-61.1-136.8-106.5C70.9,245.6,49.8,210.6,35.8,173c-8.6-22.9-11.8-40.8-10.4-57.6
			c0.9-10.8,5.1-19.7,12.8-27.4l31.6-31.4c4.5-4.2,9.4-6.5,14.1-6.5c5.8,0,10.6,3.5,13.5,6.4c0.1,0.1,0.2,0.2,0.3,0.3
			c5.7,5.2,11,10.7,16.7,16.5c2.9,2.9,5.8,5.9,8.8,8.9l25.3,25.1c9.8,9.8,9.8,18.8,0,28.5c-2.7,2.7-5.3,5.3-8,7.9
			c-7.8,7.9-15.2,15.3-23.3,22.5c-0.2,0.2-0.4,0.3-0.5,0.5c-8,7.9-6.5,15.7-4.8,20.9c0.1,0.3,0.2,0.6,0.3,0.8
			c6.6,15.8,15.9,30.8,29.9,48.5l0.1,0.1c25.6,31.3,52.6,55.7,82.3,74.4c3.8,2.4,7.7,4.3,11.4,6.2c3.3,1.7,6.5,3.2,9.2,4.9
			c0.4,0.2,0.7,0.5,1.1,0.6c3.2,1.6,6.1,2.3,9.2,2.3c7.7,0,12.5-4.8,14.1-6.4l31.7-31.5c3.2-3.1,8.2-6.9,14-6.9
			c5.7,0,10.5,3.6,13.3,6.7c0.1,0.1,0.1,0.1,0.2,0.2l51.1,50.7C389.4,347.8,389.4,357.5,380,367.3z"/>
		<path d="M237,103.8c24.3,4.1,46.3,15.5,64,33c17.6,17.5,29,39.4,33.2,63.5c1,6.1,6.3,10.3,12.3,10.3c0.7,0,1.4-0.1,2.1-0.2
			c6.9-1.1,11.4-7.6,10.3-14.4c-5-29.2-18.9-55.8-40.1-76.9c-21.2-21.1-48-34.9-77.4-39.9c-6.9-1.1-13.3,3.4-14.5,10.1
			C225.7,96.2,230.2,102.7,237,103.8z"/>
		<path d="M438.4,192.5c-8.2-48.1-31.1-91.8-66.1-126.6S293.2,8.4,244.8,0.2C238-1,231.7,3.6,230.4,10.3
			c-1.1,6.8,3.4,13.2,10.3,14.4c43.2,7.3,82.6,27.6,113.9,58.7c31.3,31.1,51.7,70.3,59,113.2c1,6.1,6.3,10.3,12.3,10.3
			c0.7,0,1.4-0.1,2.1-0.2C434.9,205.6,439.6,199.2,438.4,192.5z"/>
	</g>
</g>
</svg>
