<svg id="Capa_1" data-name="Capa 1" xmlns="http://www.w3.org/2000/svg" viewBox="0 0 438.55 622.67"><defs><style>.cls-1{font-size:101.09px;font-family:Roboto-Bold, Roboto;font-weight:700;}</style></defs><title>linkedin-logo</title><text class="cls-1" transform="translate(-2.29 622.67)">LINKEDIN</text><rect x="5.43" y="136.19" width="94.22" height="282.93"/><path d="M408.85,162q-29.69-32.4-78.51-32.41a113.29,113.29,0,0,0-32.7,4.43,74.21,74.21,0,0,0-24.84,12.42,122.94,122.94,0,0,0-16.13,14.84,122.87,122.87,0,0,0-11.13,15.11V136.19H151.6l.29,13.7q.29,13.71.29,84.51t-.57,184.72h93.93V261.23q0-14.55,3.14-23.12a60.51,60.51,0,0,1,18.13-24.41q12.13-9.85,30.12-9.86,24.56,0,36.12,17t11.56,47V419.11h93.93V257Q438.54,194.43,408.85,162Z"/><path d="M53.11,0q-23.7,0-38.4,13.85T0,48.82Q0,69.66,14.28,83.65T52,97.64h.57q24,0,38.69-14t14.41-34.83q-.28-21.14-14.56-35T53.11,0Z"/></svg>