<?xml version="1.0" encoding="utf-8"?>
<!-- Generator: Adobe Illustrator 23.1.1, SVG Export Plug-In . SVG Version: 6.00 Build 0)  -->
<svg version="1.1" id="Capa_1" xmlns="http://www.w3.org/2000/svg" xmlns:xlink="http://www.w3.org/1999/xlink" x="0px" y="0px"
	 viewBox="0 0 438.5 436.3" style="enable-background:new 0 0 438.5 436.3;" xml:space="preserve">
<title>resume-logo</title>
<g>
	<g>
		<path d="M385,51.3H53.6C24,51.3,0,75.3,0,104.9v226.5C0,361,24,385,53.6,385h331.3c29.6,0,53.6-24,53.6-53.6V105
			C438.6,75.4,414.6,51.3,385,51.3z M414.1,331.4c0,16.1-13.1,29.1-29.1,29.1H53.6c-16.1,0-29.1-13.1-29.1-29.1V105
			c0-16.1,13.1-29.1,29.1-29.1h331.3C401,75.9,414,89,414,105L414.1,331.4L414.1,331.4z"/>
		<path d="M276.6,215.4l107.3-96.2c5-4.5,5.4-12.2,0.9-17.3c-4.5-5-12.2-5.4-17.3-0.9L219.5,233.7l-28.9-25.8
			c-0.1-0.1-0.2-0.2-0.2-0.3c-0.6-0.6-1.3-1.2-2-1.7L71,100.8c-5.1-4.5-12.8-4.1-17.3,1c-4.5,5.1-4.1,12.8,1,17.3l108.5,97
			L55.2,317.3c-4.9,4.6-5.2,12.3-0.5,17.3c2.4,2.5,5.7,3.9,9,3.9c3,0,6-1.1,8.3-3.3l109.7-102.6l29.8,26.6c2.4,2.1,5.3,3.1,8.2,3.1
			s5.9-1.1,8.2-3.2l30.6-27.4l109.1,103.6c2.4,2.3,5.4,3.4,8.4,3.4c3.3,0,6.4-1.3,8.9-3.8c4.6-4.9,4.4-12.7-0.5-17.3L276.6,215.4z"
			/>
	</g>
</g>
<title>resume-logo</title>
</svg>
