<svg id="Capa_1" data-name="Capa 1" xmlns="http://www.w3.org/2000/svg" viewBox="0 0 438.55 622.67"><defs><style>.cls-1{font-size:101.09px;font-family:Roboto-Bold, Roboto;font-weight:700;}</style></defs><title>resume-logo</title><text class="cls-1" transform="translate(21.55 616.04)">RESUME</text><path d="M404.76,273.83a10.92,10.92,0,0,0-10.92,10.92v97a32.81,32.81,0,0,1-32.77,32.77H54.61a32.81,32.81,0,0,1-32.77-32.77V97.11A32.81,32.81,0,0,1,54.61,64.34h97a10.92,10.92,0,0,0,0-21.84h-97A54.66,54.66,0,0,0,0,97.11V381.73a54.66,54.66,0,0,0,54.61,54.61H361.07a54.68,54.68,0,0,0,54.62-54.61v-97A10.92,10.92,0,0,0,404.76,273.83Z"/><path d="M411.36,14.4a49.14,49.14,0,0,0-69.51,0L147,209.25a11,11,0,0,0-2.8,4.81l-25.63,92.51A10.93,10.93,0,0,0,132,320l92.51-25.63a10.91,10.91,0,0,0,4.81-2.81L424.18,96.72a49.21,49.21,0,0,0,0-69.51Zm-240.57,202L330.27,56.87l51.43,51.44L222.22,267.79ZM160.52,237l41.09,41.09-56.84,15.75ZM408.73,81.28,397.15,92.86,345.71,41.42,357.3,29.84a27.3,27.3,0,0,1,38.61,0l12.82,12.82A27.33,27.33,0,0,1,408.73,81.28Z"/></svg>